<svg xmlns="http://www.w3.org/2000/svg" viewBox="0 0 64 64" role="img" aria-label="Favicon extintor de incendio">
  <rect width="64" height="64" rx="14" fill="#F3F7FF"/>
  <rect x="22" y="18" width="20" height="34" rx="9" fill="#E3342F"/>
  <rect x="26" y="23" width="12" height="13" rx="2" fill="#FFD34A"/>
  <rect x="27" y="14" width="10" height="6" rx="2" fill="#263238"/>
  <path d="M34 14c0-3 2-5 5-5h5v4h-4c-1 0-2 1-2 2v3h-4z" fill="#263238"/>
  <path d="M42 18c0-2 1-3 3-3h3v3h-2c-1 0-1 1-1 1v4h-3z" fill="#4AA3FF"/>
  <rect x="26" y="52" width="12" height="4" rx="2" fill="#263238"/>
  <circle cx="20" cy="52" r="4.5" fill="#263238"/>
  <path d="M42 28h6c1 0 2 1 2 2v4h-8z" fill="#4AA3FF"/>
  <rect x="17" y="15" width="6" height="3" rx="1" fill="#263238"/>
</svg>
